/* XPM */
static char *dbcfdb8bb66d49c6c034264ed09e913cGORY7Z8ThnOMpEPs[] = {
/* columns rows colors chars-per-pixel */
"64 64 6 1 ",
"  c None",
". c #404002",
"X c #737301",
"o c #E3C100",
"O c #FFD900",
"+ c white",
/* pixels */
"                                                                ",
"                                                                ",
"                                                                ",
"                                                                ",
"                                                                ",
"                                                                ",
"                                                                ",
"                                                                ",
"                                                                ",
"                                                                ",
"                                                                ",
"                                                                ",
"                                                                ",
"                                                                ",
"                                                                ",
"                                                                ",
"                                                                ",
"                                                                ",
"                             XXXXXXX                            ",
"                           XXOOOOOOOXX                          ",
"                         XXOOoooooooOOXX                        ",
"                        XOOoooXXXXXoooOOX                       ",
"                       XOooXXX.....XXXooOX                      ",
"                      XOooX...........XooOX                     ",
"                     XOooX..ooooooooo..XooOX                    ",
"                     XooX.ooooooooooooo.XooX                    ",
"                    XoooXoooooooooooooooXoooX                   ",
"                    XooX.oooooXXoXXXXXoo.XooX                   ",
"                    XooXoooooXXXoXXooXoooXooX                   ",
"                   XooXoooooXXoooXoooXooooXooX                  ",
"                   XooXooooXXoooooooXXooooXooX                  ",
"                   XooXoooXXoooooooXXoooooXooX                  ",
"                   XooXoooXXXXXXooXXooooooXooX                  ",
"                   XooXoooooooXXoXXoooooooXooX                  ",
"                   XooXoooooooXXoXoooXooooXooX                  ",
"                   XooXOooooooXXoXooXXoooOXooX                  ",
"                    XooXooooooXXoXXXXXoooXooX                   ",
"                    XooXOoooooooooooooooOXooX                   ",
"                    XoooXoooooooooooooooXoooX                   ",
"                     XooXOOoooooooooooOOXooX                    ",
"                     XoooXOOoooooooooOOXoooX+                   ",
"                      XoooXOOOOOOOOOOOXoooX                     ",
"                       XoooXXXOOOOOXXXoooX+                     ",
"                        XoooooXXXXXoooooX                       ",
"                         XXoooooooooooXX                        ",
"                           XXoooooooXX                          ",
"                        .....XXXXXXX.....                       ",
"                     .......................                    ",
"                        .................                       ",
"                                                                ",
"                                                                ",
"                                                                ",
"                                                                ",
"                                                                ",
"                                                                ",
"                                                                ",
"                                                                ",
"                                                                ",
"                                                                ",
"                                                                ",
"                                                                ",
"                                                                ",
"                                                                ",
"                                                                "
};
