/* XPM */
static char *_bdd0541288644959729e0e9f0fd569bDEAZqSKiFoAhKeEY[] = {
/* columns rows colors chars-per-pixel */
"64 64 8 1 ",
"  c None",
". c black",
"X c gray8",
"o c #292829",
"O c gray23",
"+ c gray39",
"@ c #FC0000",
"# c #FA4141",
/* pixels */
"                                                                ",
"                                                                ",
"                                                                ",
"                                                                ",
"                                                                ",
"                                                                ",
"                                                                ",
"                                                                ",
"                                                                ",
"                                                                ",
"                                                                ",
"           XXXXXXXXXXXXXXXXXXXXXXXXXXXXXXXXXXXXXXXXX            ",
"           XXoooooooooooooooooooooooooooooooooooooXX            ",
"           XOXoooooooooooooooooooooooooooooooooooXOX            ",
"           XOOXoooooooooooooooooooooooooooooooooXOOX            ",
"           XOOOXoooooooooooooooooooooooooooooooXOOOX            ",
"           XOOOOXoooooooooooooooooooooooooooooXOOOOX            ",
"           XOOOOOXoooooooooooooooooooooooooooXOOOOOX            ",
"           XOOOOOOXoooooooooooooooooooooooooXOOOOOOX            ",
"           XOOOOOOOXoooooooooooooooooooooooXOOOOOOOX            ",
"           XOOOOOOOOXXXXXXXXXXXXXXXXXXXXXXXOOOOOOOOX            ",
"           XOOOOOOOOXXXXXXXXXXXXXXXXXXXXXXXOOOOOOOOX            ",
"           XOOOOOOOOXXXXXXXXXXXXXXXXXXXXXXXOOOOOOOOX            ",
"           XOOOOOOOOXXXXXXXXXXXXXXXXXXXXXXXOOOOOOOOX            ",
"           XOOOOOOOOXXXXXXXXXXXXXXXXXXXXXXXOOOOOOOOX            ",
"           XOOOOOOOOXXXXXXXXXXXXXXXXXXXXXXXOOOOOOOOX            ",
"           XOOOOOOOOXXXXXXXXXXXX#XXXXXXXXXXOOOOOOOOX            ",
"           XOOOOOOOOXXXXXXXXXXXX@##XXXXXXXXOOOOOOOOX            ",
"           XOOOOOOOOXXXXXXXXXXXX@@@##XXXXXXOOOOOOOOX            ",
"           XOOOOOOOOXXXXX#######@@@@@##XXXXOOOOOOOOX            ",
"           XOOOOOOOOXXXXX@@@@@@@@@@@@@@##XXOOOOOOOOX            ",
"           XOOOOOOOOXXXXX@@@@@@@@@@@@@@@@XXOOOOOOOOX            ",
"           XOOOOOOOOXXXXX@@@@@@@@@@@@@@..XXOOOOOOOOX            ",
"           XOOOOOOOOXXXXX.......@@@@@..XXXXOOOOOOOOX            ",
"           XOOOOOOOOXXXXXXXXXXXX@@@..XXXXXXOOOOOOOOX            ",
"           XOOOOOOOOXXXXXXXXXXXX@..XXXXXXXXOOOOOOOOX            ",
"           XOOOOOOOOXXXXXXXXXXXX.XXXXXXXXXXOOOOOOOOX            ",
"           XOOOOOOOOXXXXXXXXXXXXXXXXXXXXXXXOOOOOOOOX            ",
"           XOOOOOOOOXXXXXXXXXXXXXXXXXXXXXXXOOOOOOOOX            ",
"           XOOOOOOOOXXXXXXXXXXXXXXXXXXXXXXXOOOOOOOOX            ",
"           XOOOOOOOOXXXXXXXXXXXXXXXXXXXXXXXOOOOOOOOX            ",
"           XOOOOOOOOXXXXXXXXXXXXXXXXXXXXXXXOOOOOOOOX            ",
"           XOOOOOOOOXXXXXXXXXXXXXXXXXXXXXXXOOOOOOOOX            ",
"           XOOOOOOOX+++++++++++++++++++++++XOOOOOOOX            ",
"           XOOOOOOX+++++++++++++++++++++++++XOOOOOOX            ",
"           XOOOOOX+++++++++++++++++++++++++++XOOOOOX            ",
"           XOOOOX+++++++++++++++++++++++++++++XOOOOX            ",
"           XOOOX+++++++++++++++++++++++++++++++XOOOX            ",
"           XOOX+++++++++++++++++++++++++++++++++XOOX            ",
"           XOX+++++++++++++++++++++++++++++++++++XOX            ",
"           XX+++++++++++++++++++++++++++++++++++++XX            ",
"           XXXXXXXXXXXXXXXXXXXXXXXXXXXXXXXXXXXXXXXXX            ",
"                                                                ",
"                                                                ",
"                                                                ",
"                                                                ",
"                                                                ",
"                                                                ",
"                                                                ",
"                                                                ",
"                                                                ",
"                                                                ",
"                                                                ",
"                                                                "
};
