/* XPM */
static char *_82a4ebecea043c7d48e3f7064084b46rEMDT9uVY6KHDJ1b[] = {
/* columns rows colors chars-per-pixel */
"64 64 5 1 ",
"  c None",
". c #FA5050",
"X c #4A4A4A",
"o c #939393",
"O c #D3D3D3",
/* pixels */
"                                                                ",
"                                                                ",
"                                                                ",
"                                                                ",
"                                                                ",
"                                                                ",
"                                                                ",
"                                                                ",
"                                                                ",
"                                                                ",
"                                                                ",
"                                                                ",
"                                                                ",
"                                                                ",
"                                                                ",
"                                                                ",
"                oXXXXXXXXXXXXXXXXXXXXXXXXXXXXXXo                ",
"                ooXXXXXXXXXXXXXXXXXXXXXXXXXXXXoo                ",
"                oooXXXXXXXXXXXXXXXXXXXXXXXXXXooo                ",
"                ooooXXXXXXXXXXXXXXXXXXXXXXXXoooo                ",
"                oooooXXXXXXXXXXXXXXXXXXXXXXooooo                ",
"                ooooooXXXXXXXXXXXXXXXXXXXXoooooo                ",
"                oooooooXXXXXXXXXXXXXXXXXXooooooo                ",
"                ooooooooXXXXXXXXXXXXXXXXoooooooo                ",
"                oooooooooXXXXXXXXXXXXXXooooooooo                ",
"                ooooooooo..............ooooooooo                ",
"                ooooooooo..............ooooooooo                ",
"                ooooooooo..............ooooooooo                ",
"                ooooooooo..............ooooooooo                ",
"                ooooooooo..............ooooooooo                ",
"                ooooooooo..............ooooooooo                ",
"                ooooooooo..............ooooooooo                ",
"                ooooooooo..............ooooooooo                ",
"                ooooooooo..............ooooooooo                ",
"                ooooooooo..............ooooooooo                ",
"                ooooooooo..............ooooooooo                ",
"                ooooooooo..............ooooooooo                ",
"                ooooooooo..............ooooooooo                ",
"                ooooooooo..............ooooooooo                ",
"                oooooooooOOOOOOOOOOOOOOooooooooo                ",
"                ooooooooOOOOOOOOOOOOOOOOoooooooo                ",
"                oooooooOOOOOOOOOOOOOOOOOOooooooo                ",
"                ooooooOOOOOOOOOOOOOOOOOOOOoooooo                ",
"                oooooOOOOOOOOOOOOOOOOOOOOOOooooo                ",
"                ooooOOOOOOOOOOOOOOOOOOOOOOOOoooo                ",
"                oooOOOOOOOOOOOOOOOOOOOOOOOOOOooo                ",
"                ooOOOOOOOOOOOOOOOOOOOOOOOOOOOOoo                ",
"                oOOOOOOOOOOOOOOOOOOOOOOOOOOOOOOo                ",
"                                                                ",
"                                                                ",
"                                                                ",
"                                                                ",
"                                                                ",
"                                                                ",
"                                                                ",
"                                                                ",
"                                                                ",
"                                                                ",
"                                                                ",
"                                                                ",
"                                                                ",
"                                                                ",
"                                                                ",
"                                                                "
};
