/* XPM */
static char *_ca1c51405634ffaf62346081248138eqxX42flUW4zrKP4U[] = {
/* columns rows colors chars-per-pixel */
"64 64 6 1 ",
"  c None",
". c black",
"X c #4F2B2B",
"o c #AD0707",
"O c #F50808",
"+ c #F25050",
/* pixels */
"                                                                ",
"                                                                ",
"                                                                ",
"                                                                ",
"                                                                ",
"                                                                ",
"                                                                ",
"                                                                ",
"                                                                ",
"                                                                ",
"                                                                ",
"                                                                ",
"                                                                ",
"                                                                ",
"                                                                ",
"                                                                ",
"                                                                ",
"                                                                ",
"                  ............................                  ",
"                  .X++++++++++++++++++++++++X.                  ",
"                  .OX++++++++++++++++++++++XO.                  ",
"                  .OOX++++++++++++++++++++XOO.                  ",
"                  .OOOX++++++++++++++++++XOOO.                  ",
"                  .OOOOX++++++++++++++++XOOOO.                  ",
"                  .OOOOOX++++++++++++++XOOOOO.                  ",
"                  .OOOOOOX++++++++++++XOOOOOO.                  ",
"                  .OOOOOOOXXXXXXXXXXXXOOOOOOO.                  ",
"                  .OOOOOOOXXooooooooXXOOOOOOO.                  ",
"                  .OOOOOOOXoXooooooXoXOOOOOOO.                  ",
"                  .OOOOOOOXooXooooXooXOOOOOOO.                  ",
"                  .OOOOOOOXoooXooXoooXOOOOOOO.                  ",
"                  .OOOOOOOXooooXXooooXOOOOOOO.                  ",
"                  .OOOOOOOXooooXXooooXOOOOOOO.                  ",
"                  .OOOOOOOXoooX++XoooXOOOOOOO.                  ",
"                  .OOOOOOOXooX++++XooXOOOOOOO.                  ",
"                  .OOOOOOOXoX++++++XoXOOOOOOO.                  ",
"                  .OOOOOOOXX++++++++XXOOOOOOO.                  ",
"                  .OOOOOOOXXXXXXXXXXXXOOOOOOO.                  ",
"                  .OOOOOOXooooooooooooXOOOOOO.                  ",
"                  .OOOOOXooooooooooooooXOOOOO.                  ",
"                  .OOOOXooooooooooooooooXOOOO.                  ",
"                  .OOOXooooooooooooooooooXOOO.                  ",
"                  .OOXooooooooooooooooooooXOO.                  ",
"                  .OXooooooooooooooooooooooXO.                  ",
"                  .XooooooooooooooooooooooooX.                  ",
"                  ............................                  ",
"                                                                ",
"                                                                ",
"                                                                ",
"                                                                ",
"                                                                ",
"                                                                ",
"                                                                ",
"                                                                ",
"                                                                ",
"                                                                ",
"                                                                ",
"                                                                ",
"                                                                ",
"                                                                ",
"                                                                ",
"                                                                ",
"                                                                ",
"                                                                "
};
