/* XPM */
static char *_a6b8977e0024fbaf4c2a7fd78ad40bf9m5Vl0ebBwlmh8HB[] = {
/* columns rows colors chars-per-pixel */
"64 64 2 1 ",
"  c None",
". c #FA5050",
/* pixels */
"                                                                ",
"                                                                ",
"                                                                ",
"                                                                ",
"                                                                ",
"                                                                ",
"                                                                ",
"                                                                ",
"                                                                ",
"                                                                ",
"                                                                ",
"           ..........................................           ",
"           ..........................................           ",
"           ..........................................           ",
"           ..........................................           ",
"           ..........................................           ",
"           ..........................................           ",
"           ..........................................           ",
"           ..........................................           ",
"           ..........................................           ",
"           ..........................................           ",
"           ..........................................           ",
"           ..........................................           ",
"           ..........................................           ",
"           ..........................................           ",
"           ..........................................           ",
"           ..........................................           ",
"           ..........................................           ",
"           ..........................................           ",
"           ..........................................           ",
"           ..........................................           ",
"           ..........................................           ",
"           ..........................................           ",
"           ..........................................           ",
"           ..........................................           ",
"           ..........................................           ",
"           ..........................................           ",
"           ..........................................           ",
"           ..........................................           ",
"           ..........................................           ",
"           ..........................................           ",
"           ..........................................           ",
"           ..........................................           ",
"           ..........................................           ",
"           ..........................................           ",
"           ..........................................           ",
"           ..........................................           ",
"           ..........................................           ",
"           ..........................................           ",
"           ..........................................           ",
"           ..........................................           ",
"           ..........................................           ",
"           ..........................................           ",
"                                                                ",
"                                                                ",
"                                                                ",
"                                                                ",
"                                                                ",
"                                                                ",
"                                                                ",
"                                                                ",
"                                                                ",
"                                                                ",
"                                                                "
};
