/* XPM */
static char *_7e8b324e5d74103e4298532f8a80f17acbygKJkXdkHB25p[] = {
/* columns rows colors chars-per-pixel */
"64 64 5 1 ",
"  c None",
". c black",
"X c gray35",
"o c red",
"O c gray98",
/* pixels */
"................................................................",
"................................................................",
"................................................................",
"................................................................",
".....X                                                    X.....",
"......X                                                  X......",
".... ..X                                                X.. ....",
"....  ..X                                              X..  ....",
"....   ..X                                            X..   ....",
"....    ..X                                          X..    ....",
"....     ..X                  OOO                   X..     ....",
"....      ..X               OOoooOO                X..      ....",
"....       ..X              OoooooO               X..       ....",
"....        ..X            OoooooooO             X..        ....",
"....         ..X           OoOOOOOoO            X..         ....",
"....          ..X          OoooooooO           X..          ....",
"....           ..X          OoooooO           X..           ....",
"....            ..X         OOoooOO          X..            ....",
"....             ..X          OOO           X..             ....",
"....              ..X                      X..              ....",
"....               ..X                    X..               ....",
"....                ..X                  X..                ....",
"....                 ..X                X..                 ....",
"....                  ..X              X..                  ....",
"....                   ..X            X..                   ....",
"....                    ..X          X..                    ....",
"....                     ..X        X..                     ....",
"....         OOO          ..X      X..          OOO         ....",
"....       OOoooOO         ..X    X..         OOoooOO       ....",
"....       OoooooO          ..X  X..          OoooooO       ....",
"....      OoooooooO          ..XX..          OoooooooO      ....",
"....      OoOOOOOoO           .XX.           OoOOOOOoO      ....",
"....      OoooooooO           X..X           OoooooooO      ....",
"....       OoooooO           X....X           OoooooO       ....",
"....       OOoooOO          X..  ..X          OOoooOO       ....",
"....         OOO           X..    ..X           OOO         ....",
"....                      X..      ..X                      ....",
"....                     X..        ..X                     ....",
"....                    X..          ..X                    ....",
"....                   X..            ..X                   ....",
"....                  X..              ..X                  ....",
"....                 X..                ..X                 ....",
"....                X..                  ..X                ....",
"....               X..                    ..X               ....",
"....              X..                      ..X              ....",
"....             X..          OOO           ..X             ....",
"....            X..         OOoooOO          ..X            ....",
"....           X..          OoooooO           ..X           ....",
"....          X..          OoooooooO           ..X          ....",
"....         X..           OoOOOOOoO            ..X         ....",
"....        X..            OoooooooO             ..X        ....",
"....       X..              OoooooO               ..X       ....",
"....      X..               OOoooOO                ..X      ....",
"....     X..                  OOO                   ..X     ....",
"....    X..                                          ..X    ....",
"....   X..                                            ..X   ....",
"....  X..                                              ..X  ....",
".... X..                                                ..X ....",
"....X..                                                  ..X....",
"......                                                    ......",
"................................................................",
"................................................................",
"................................................................",
"................................................................"
};
